# xmcd
#
# Track frame offsets: 
#        150
#        35205
#        65795
#        104055
#        140657
#        177640
#        218210
#        253948
#
# Disc length: 3925 seconds
#
# Revision: 1
# Processed by: cddbd v1.5PL3 Copyright (c) Steve Scherf et al.
# Submitted via: ExactAudioCopy v0.95a3
#
DISCID=8d0f5308
DTITLE=Reuben Wilson - Organ Blues
DYEAR=2002
DGENRE=Blues
TTITLE0=Blues For McDuff
TTITLE1=Please Send Me Someone To Love
TTITLE2=Old Time Shuffle Blues
TTITLE3=Back At The Chicken Shack
TTITLE4=Honey Dripper
TTITLE5=After Hours
TTITLE6=Willow Weep For Me
TTITLE7=Nobody Knows You When You're Down And Out
EXTD=
EXTT0=
EXTT1=
EXTT2=
EXTT3=
EXTT4=
EXTT5=
EXTT6=
EXTT7=
PLAYORDER=
